<?xml version="1.0" encoding="UTF-8" standalone="no"?>
<svg
   version="1.0"
   width="1600.000000pt"
   height="1600.000000pt"
   viewBox="0 0 1600.000000 1600.000000"
   preserveAspectRatio="xMidYMid meet"
   id="svg11"
   sodipodi:docname="logo_shiny_metallic.svg"
   inkscape:version="1.3.1 (91b66b0783, 2023-11-16)"
   xmlns:inkscape="http://www.inkscape.org/namespaces/inkscape"
   xmlns:sodipodi="http://sodipodi.sourceforge.net/DTD/sodipodi-0.dtd"
   xmlns:xlink="http://www.w3.org/1999/xlink"
   xmlns="http://www.w3.org/2000/svg"
   xmlns:svg="http://www.w3.org/2000/svg">
  <defs
     id="defs11">
    <linearGradient
       id="linearGradient11"
       inkscape:collect="always">
      <stop
         style="stop-color:#4d4d4d;stop-opacity:0.99833051;"
         offset="0"
         id="stop11" />
      <stop
         style="stop-color:#4d4d6a;stop-opacity:1;"
         offset="1"
         id="stop12" />
    </linearGradient>
    <linearGradient
       inkscape:collect="always"
       xlink:href="#linearGradient11"
       id="linearGradient12"
       x1="13637.383"
       y1="7237.3833"
       x2="-912.14954"
       y2="9450.4678"
       gradientUnits="userSpaceOnUse" />
  </defs>
  <sodipodi:namedview
     id="namedview11"
     pagecolor="#ffffff"
     bordercolor="#111111"
     borderopacity="1"
     inkscape:showpageshadow="0"
     inkscape:pageopacity="0"
     inkscape:pagecheckerboard="1"
     inkscape:deskcolor="#d1d1d1"
     inkscape:document-units="pt"
     inkscape:zoom="0.35465825"
     inkscape:cx="262.22427"
     inkscape:cy="1091.1913"
     inkscape:window-width="3200"
     inkscape:window-height="1284"
     inkscape:window-x="2391"
     inkscape:window-y="-9"
     inkscape:window-maximized="1"
     inkscape:current-layer="g11" />
  <g
     transform="translate(0.000000,1600.000000) scale(0.100000,-0.100000)"
     fill="#000000"
     stroke="none"
     id="g11"
     style="fill:url(#linearGradient12);fill-opacity:1">
    <path
       d="M3330 11369 c-45 -90 -119 -236 -165 -324 -45 -88 -146 -286 -225 -440 -78 -154 -173 -338 -210 -410 -37 -71 -125 -242 -195 -380 -147 -287 -288 -563 -385 -750 -205 -396 -420 -823 -420 -833 0 -6 13 -18 30 -27 21 -11 28 -20 23 -33 -7 -19 -162 -299 -253 -457 -31 -55 -99 -174 -150 -263 -57 -100 -101 -167 -114 -172 -12 -5 -47 -16 -78 -25 -71 -19 -112 -53 -134 -111 -16 -41 -16 -58 -5 -187 17 -195 38 -407 56 -562 8 -71 15 -135 15 -141 0 -5 -20 -40 -45 -77 -25 -37 -45 -74 -45 -82 0 -8 40 -41 90 -72 49 -32 90 -64 90 -70 0 -7 -15 -34 -34 -60 -84 -120 -116 -213 -116 -340 0 -158 51 -291 174 -458 78 -105 261 -286 362 -358 183 -129 401 -217 638 -258 247 -41 578 -11 835 76 227 76 401 166 576 295 257 191 420 380 498 578 20 51 19 51 -83 18 -113 -37 -230 -66 -265 -66 -72 0 -369 267 -517 465 -41 55 -123 175 -183 268 -110 172 -156 223 -265 297 -58 39 -258 160 -265 160 -2 0 -31 16 -64 35 -45 27 -62 43 -66 63 -3 15 -11 44 -17 64 -11 37 -8 44 115 285 69 137 160 313 202 393 41 80 125 244 186 365 61 121 124 243 139 270 26 47 128 246 358 695 193 379 305 597 385 750 200 386 255 499 264 545 5 31 14 49 21 47 7 -1 446 -218 975 -482 l962 -480 4305 -1 c4871 0 4505 0 4499 5 -2 2 -152 9 -334 15 -181 7 -413 16 -515 21 -102 5 -396 17 -655 25 -258 8 -576 20 -705 25 -129 6 -593 21 -1030 35 -437 14 -905 29 -1040 35 -135 5 -384 14 -555 20 -170 6 -555 19 -855 30 -300 11 -637 22 -749 26 -112 3 -217 10 -234 15 -26 7 -172 91 -287 164 -19 12 -136 82 -260 155 -124 74 -290 173 -370 220 -80 48 -235 140 -345 205 -110 65 -216 128 -235 140 -44 28 -128 78 -410 245 -124 73 -342 203 -485 288 -143 85 -298 177 -345 205 -47 28 -96 59 -109 69 -33 25 -43 23 -63 -12 -9 -17 -24 -30 -33 -30 -9 0 -44 15 -78 34 -74 40 -626 321 -747 381 -47 23 -97 45 -111 48 -23 6 -175 15 -741 44 l-126 6 -82 -164z m1390 -255 c234 -113 429 -209 435 -215 6 -6 5 -16 -3 -29 -6 -11 -12 -22 -12 -25 0 -11 111 -77 670 -400 69 -40 181 -105 250 -145 69 -40 186 -108 260 -150 212 -122 416 -245 390 -236 -8 2 -71 29 -140 59 -69 29 -208 89 -310 132 -102 42 -277 117 -390 165 -576 246 -1427 608 -1550 659 -115 48 -107 29 -81 193 32 197 32 198 45 198 6 0 203 -92 436 -206z m-1023 -298 c102 -111 -38 -280 -164 -198 -33 21 -63 75 -63 113 0 37 31 89 69 113 18 12 41 15 75 13 42 -4 55 -10 83 -41z m-1225 -1773 c-6 -10 -29 -88 -52 -173 -23 -85 -62 -222 -85 -305 -24 -82 -95 -332 -159 -555 -64 -223 -124 -434 -135 -470 -11 -36 -37 -125 -57 -197 -42 -148 -37 -142 -126 -119 -29 7 -72 17 -96 21 -41 7 -43 6 -55 -24 -6 -17 -16 -31 -22 -31 -30 -1 -245 55 -245 63 0 6 15 38 34 71 90 164 226 416 226 420 0 2 27 52 60 111 33 59 60 109 60 110 0 3 81 148 85 153 2 2 12 -2 24 -10 30 -19 48 3 127 157 259 507 417 806 421 801 3 -2 0 -13 -5 -23z m-942 -2059 c36 -8 75 -17 87 -19 14 -3 24 -15 28 -34 5 -25 12 -30 62 -40 31 -6 69 -11 85 -11 37 0 36 -12 -11 -113 -26 -58 -49 -92 -72 -109 -59 -43 -342 -140 -358 -122 -7 8 -37 215 -57 385 -5 52 -4 58 18 73 26 19 100 16 218 -10z m608 -262 c43 -47 43 -83 -2 -128 -50 -50 -115 -43 -149 16 -30 51 -17 100 35 137 41 29 73 22 116 -25z"
       id="path1"
       style="fill:url(#linearGradient12);fill-opacity:1.0"
       inkscape:export-filename="Logo-Yildiz-1.png"
       inkscape:export-xdpi="96"
       inkscape:export-ydpi="96" />
    <path
       d="M3930 8790 c0 -5 -7 -58 -15 -117 -24 -171 -52 -375 -75 -548 -12 -88 -28 -205 -36 -260 -8 -55 -21 -153 -29 -217 l-15 -117 -92 -158 c-178 -309 -208 -361 -208 -367 0 -3 216 -6 479 -6 l479 0 20 33 c10 17 72 127 138 242 138 243 80 179 709 790 529 514 735 718 735 727 0 4 -157 8 -348 8 l-349 0 -69 -73 c-38 -40 -163 -175 -279 -300 -115 -126 -211 -225 -212 -220 -2 4 30 137 71 295 40 158 71 290 68 293 -10 10 -972 5 -972 -5z"
       id="path2"
       style="fill:url(#linearGradient12);fill-opacity:1.0" />
    <path
       d="M6040 8693 c-35 -60 -93 -160 -130 -223 -38 -63 -123 -209 -190 -325 -168 -287 -176 -301 -265 -455 -43 -74 -97 -166 -120 -205 -84 -142 -275 -473 -275 -479 0 -4 207 -5 461 -4 l461 3 102 175 c57 96 143 245 193 330 49 85 170 292 268 460 98 168 186 318 195 335 10 16 76 131 149 254 72 123 131 228 131 232 0 5 -207 8 -459 9 l-459 0 -62 -107z"
       id="path3"
       style="fill:url(#linearGradient12);fill-opacity:1.0" />
    <path
       d="M7177 8763 c-13 -21 -59 -99 -102 -173 -43 -74 -110 -189 -148 -255 -38 -66 -108 -185 -154 -265 -47 -80 -111 -188 -141 -240 -30 -52 -74 -126 -97 -165 -23 -38 -53 -90 -67 -115 -28 -49 -134 -231 -218 -375 -29 -49 -64 -109 -77 -132 l-25 -43 799 0 798 0 54 96 c29 52 87 152 127 222 41 69 74 129 74 134 0 4 -146 8 -325 8 -179 0 -325 2 -325 5 0 4 453 786 629 1085 38 63 85 145 105 183 l38 67 -461 0 -461 0 -23 -37z"
       id="path4"
       style="fill:url(#linearGradient12);fill-opacity:1.0" />
    <path
       d="M8845 8703 c-32 -54 -88 -150 -125 -213 -37 -63 -125 -214 -195 -335 -70 -121 -182 -312 -248 -425 -66 -113 -144 -245 -172 -295 -28 -49 -93 -160 -143 -246 -51 -87 -95 -164 -98 -173 -6 -15 62 -16 771 -16 643 0 796 3 884 15 261 38 468 142 587 294 24 32 79 116 121 187 351 598 490 837 511 884 32 71 40 171 18 222 -24 56 -68 101 -129 132 -122 61 -90 59 -944 63 l-781 4 -57 -98z m939 -336 c9 -14 4 -31 -24 -85 -45 -84 -447 -779 -469 -809 -33 -45 -87 -65 -182 -69 -49 -2 -89 -1 -89 3 0 7 38 73 208 363 249 424 280 478 321 548 l42 73 91 -3 c74 -2 93 -6 102 -21z"
       id="path5"
       style="fill:url(#linearGradient12);fill-opacity:1.0" />
    <path
       d="M11137 8778 c-16 -25 -100 -170 -137 -233 -12 -22 -108 -186 -213 -365 -104 -179 -215 -368 -245 -420 -90 -156 -403 -693 -424 -727 l-20 -33 465 0 464 0 98 168 c54 92 128 219 165 282 37 63 132 225 210 360 79 135 215 369 303 520 243 416 267 458 267 464 0 3 -207 6 -460 6 l-460 0 -13 -22z"
       id="path6"
       style="fill:url(#linearGradient12);fill-opacity:1.0" />
    <path
       d="M12210 8785 c-17 -21 -241 -407 -243 -420 -1 -6 117 -12 332 -15 l334 -5 -54 -40 c-30 -23 -268 -202 -529 -399 -261 -197 -512 -386 -557 -420 l-82 -61 -118 -205 c-65 -112 -119 -208 -121 -212 -2 -4 412 -8 920 -8 l923 0 127 220 126 220 -351 0 c-343 0 -351 0 -332 19 11 10 157 122 325 248 168 127 384 290 480 362 96 73 227 172 292 219 l116 87 119 204 c65 112 120 207 121 212 2 5 -384 9 -906 9 -802 0 -911 -2 -922 -15z"
       id="path7"
       style="fill:url(#linearGradient12);fill-opacity:1.0" />
    <path
       d="M12572 6769 c-76 -10 -139 -40 -186 -88 -45 -46 -116 -178 -116 -214 0 -46 47 -81 150 -113 50 -15 95 -33 101 -40 13 -16 7 -38 -31 -97 -29 -46 -31 -47 -80 -47 -59 0 -63 12 -25 75 14 22 25 43 25 48 0 4 -60 7 -133 7 l-133 0 -32 -65 c-33 -67 -40 -112 -22 -144 20 -38 66 -46 270 -46 182 0 198 1 245 23 69 32 108 73 166 173 87 152 63 198 -128 246 -77 19 -90 32 -73 73 24 57 64 90 108 90 23 0 44 -5 47 -10 4 -6 -5 -31 -19 -56 -14 -26 -26 -51 -26 -56 0 -5 56 -7 128 -6 l127 3 38 74 c24 49 35 82 31 95 -11 39 -47 65 -103 76 -62 12 -237 11 -329 -1z"
       id="path8"
       style="fill:url(#linearGradient12);fill-opacity:1.0" />
    <path
       d="M10902 6653 c-38 -65 -94 -161 -125 -213 -30 -52 -93 -160 -140 -240 l-85 -145 261 -3 c240 -2 266 -1 322 18 76 25 118 66 180 175 52 91 56 126 20 159 l-25 24 34 6 c55 10 111 59 155 135 60 103 54 154 -22 186 -29 12 -84 15 -271 15 l-234 0 -70 -117z m336 -9 c30 -8 28 -37 -7 -94 -32 -53 -60 -70 -119 -70 l-44 0 38 68 c57 104 69 113 132 96z m-138 -302 c0 -10 -13 -38 -28 -63 -16 -24 -31 -52 -35 -61 -11 -31 -52 -49 -101 -46 l-46 3 52 93 53 92 52 0 c44 0 53 -3 53 -18z"
       id="path9"
       style="fill:url(#linearGradient12);fill-opacity:1.0" />
    <path
       d="M11687 6748 c-41 -67 -382 -648 -396 -676 l-12 -23 278 3 c266 3 280 4 329 26 28 13 65 38 81 55 43 46 123 189 123 220 0 25 -23 57 -41 57 -5 0 -9 5 -9 10 0 6 8 10 18 10 9 0 40 13 67 28 41 22 58 41 98 106 65 110 62 151 -16 187 -37 16 -68 19 -274 19 -230 0 -233 0 -246 -22z m291 -107 c6 0 12 -9 12 -18 0 -26 -57 -121 -79 -133 -19 -9 -111 -15 -111 -6 0 9 85 151 94 158 8 5 33 5 84 -1z m-152 -295 c7 -18 -72 -153 -97 -166 -19 -11 -109 -14 -109 -4 0 3 23 46 52 95 l52 89 48 0 c33 0 50 -5 54 -14z"
       id="path10"
       style="fill:url(#linearGradient12);fill-opacity:1.0" />
    <path
       d="M3025 6709 c36 -12 338 -32 795 -54 184 -9 432 -23 550 -30 1210 -81 1404 -94 1505 -100 50 -3 187 -12 305 -20 423 -29 687 -46 840 -55 85 -5 391 -25 680 -44 289 -19 597 -40 685 -46 88 -5 365 -23 615 -40 250 -16 595 -39 765 -50 171 -11 370 -25 443 -31 73 -6 135 -10 136 -8 2 2 62 108 134 234 l131 230 -727 6 c-1429 12 -6888 19 -6857 8z"
       id="path11"
       style="fill:url(#linearGradient12);fill-opacity:1.0" />
  </g>
</svg>
